<?xml version="1.0" encoding="UTF-8" standalone="no"?> <svg xmlns:svg="http://www.w3.org/2000/svg" xmlns="http://www.w3.org/2000/svg" xmlns:xlink="http://www.w3.org/1999/xlink" width="1000" height="500" viewBox="0 0 54 30"><title>Workbench plan</title><style type="text/css"> .lines { stroke: rgba(0,0,0,0.5); stroke-width: 0.03; stroke-dasharray: 0.1, 0.1; opacity: 0; } .lines &gt; g &gt; path:nth-child(6n+1) { stroke-width: 0.03; stroke: #000; } .lines &gt; g &gt; path:nth-child(12n+1) { stroke: #000; stroke-width: 0.06; } .lines text { font-size: 1px; font-family: Arvo, sans-serif; text-anchor: end; } svg &gt; g:hover .lines { opacity: 0.25; } @media print { .lines { opacity: 0.25; } } .structure { stroke: #000; stroke-width: 0; fill: #000; } .structure path { opacity: 0.1; stroke-width: 1.5; } .structure .optional { opacity: 0.05; } g.legs { fill: hsla(21deg,70%,40%,1); opacity: 1; } </style><rect height="100%" width="100%" fill="#EEE"></rect><g transform="translate(3,3)"><rect width="48" height="24" fill="hsla(42deg,50%,50%,0.5)"></rect><g class="structure"><path d="M 3.75 3.75 l 40.5 0"></path><!-- back --><path d="M 3.75 12.00 l 40.5 0" class="optional"></path><path d="M 3.75 20.25 l 40.5 0"></path><!-- front --><path d="M 3.75 3 l 0 18"></path><!-- left --><path d="M 24.00 3.75 l 0 16.5" class="optional"></path><path d="M 44.25 3 l 0 18"></path><!-- right --></g><g class="legs"><rect x="4.5" y="4.5" height="1.5" width="3.5"></rect><rect x="4.5" y="18" height="1.5" width="3.5"></rect><rect x="40" y="4.5" height="1.5" width="3.5"></rect><rect x="40" y="18" height="1.5" width="3.5"></rect></g><g class="lines"><g class="v-lines"><path d="M 0,0 l 0,24"></path><path d="M 1,0 l 0,24"></path><path d="M 2,0 l 0,24"></path><path d="M 3,0 l 0,24"></path><path d="M 4,0 l 0,24"></path><path d="M 5,0 l 0,24"></path><path d="M 6,0 l 0,24"></path><path d="M 7,0 l 0,24"></path><path d="M 8,0 l 0,24"></path><path d="M 9,0 l 0,24"></path><path d="M 10,0 l 0,24"></path><path d="M 11,0 l 0,24"></path><path d="M 12,0 l 0,24"></path><path d="M 13,0 l 0,24"></path><path d="M 14,0 l 0,24"></path><path d="M 15,0 l 0,24"></path><path d="M 16,0 l 0,24"></path><path d="M 17,0 l 0,24"></path><path d="M 18,0 l 0,24"></path><path d="M 19,0 l 0,24"></path><path d="M 20,0 l 0,24"></path><path d="M 21,0 l 0,24"></path><path d="M 22,0 l 0,24"></path><path d="M 23,0 l 0,24"></path><path d="M 24,0 l 0,24"></path><path d="M 25,0 l 0,24"></path><path d="M 26,0 l 0,24"></path><path d="M 27,0 l 0,24"></path><path d="M 28,0 l 0,24"></path><path d="M 29,0 l 0,24"></path><path d="M 30,0 l 0,24"></path><path d="M 31,0 l 0,24"></path><path d="M 32,0 l 0,24"></path><path d="M 33,0 l 0,24"></path><path d="M 34,0 l 0,24"></path><path d="M 35,0 l 0,24"></path><path d="M 36,0 l 0,24"></path><path d="M 37,0 l 0,24"></path><path d="M 38,0 l 0,24"></path><path d="M 39,0 l 0,24"></path><path d="M 40,0 l 0,24"></path><path d="M 41,0 l 0,24"></path><path d="M 42,0 l 0,24"></path><path d="M 43,0 l 0,24"></path><path d="M 44,0 l 0,24"></path><path d="M 45,0 l 0,24"></path><path d="M 46,0 l 0,24"></path><path d="M 47,0 l 0,24"></path><path d="M 48,0 l 0,24"></path><text x="12" y="0" dx="0.5" dy="-0.5">12</text><text x="24" y="0" dx="0.5" dy="-0.5">24</text><text x="36" y="0" dx="0.5" dy="-0.5">36</text><text x="48" y="0" dx="0.5" dy="-0.5">48</text></g><g class="h-lines"><path d="M 0,0 l 48,0"></path><path d="M 0,1 l 48,0"></path><path d="M 0,2 l 48,0"></path><path d="M 0,3 l 48,0"></path><path d="M 0,4 l 48,0"></path><path d="M 0,5 l 48,0"></path><path d="M 0,6 l 48,0"></path><path d="M 0,7 l 48,0"></path><path d="M 0,8 l 48,0"></path><path d="M 0,9 l 48,0"></path><path d="M 0,10 l 48,0"></path><path d="M 0,11 l 48,0"></path><path d="M 0,12 l 48,0"></path><path d="M 0,13 l 48,0"></path><path d="M 0,14 l 48,0"></path><path d="M 0,15 l 48,0"></path><path d="M 0,16 l 48,0"></path><path d="M 0,17 l 48,0"></path><path d="M 0,18 l 48,0"></path><path d="M 0,19 l 48,0"></path><path d="M 0,20 l 48,0"></path><path d="M 0,21 l 48,0"></path><path d="M 0,22 l 48,0"></path><path d="M 0,23 l 48,0"></path><path d="M 0,24 l 48,0"></path><text x="0" y="0" dx="-0.33" dy="-0.33">0</text><text x="0" y="12" dx="-0.5" dy="0.5">12</text><text x="0" y="24" dx="-0.5" dy="0.5">24</text></g></g></g></svg> 